{"title":"K-9 1989 DVDrip English Klam","uid":6582028,"size":1502763274,"categoryP":"video","categoryS":"movies","magnet":"?xt=urn:btih:7adfc599e0fa765b51545f0183f03a6944e4e5a8&amp;dn=K-9+1989+DVDrip+English+Klam&amp;tr=udp%3A%2F%2Ftracker.openbittorrent.com%3A80&amp;tr=udp%3A%2F%2Fopen.demonii.com%3A1337&amp;tr=udp%3A%2F%2Ftracker.coppersurfer.tk%3A6969&amp;tr=udp%3A%2F%2Fexodus.desync.com%3A6969","seeders":8,"leechers":0,"uploader":"Klambake","files":-1,"time":1312455621,"description":"With: James Belushi, Mel Harris en Ed O'Neill\n\nDe extravagante agent Michael Dooley heeft hulp nodig om een drugsdealer te vinden die een poging gedaan heeft hem te vermoorden. Een vriend geeft hem de hond Jerry Lee, die getraind is om drugs te ruiken. Met zijn hulp gaat Dooley op zoek naar zijn vijand. Jerry heeft echter zo z'n eigen persoonlijkheid, en doet waar hij zin in heeft.\n\nTo stop an elusive criminal, a maverick detective enlists the aid of a police dog who's an unusually intelligent smart alec.\n\n------------------ Dutch Friends ------------------\nYou can find my Friends at: http://www.Film-Test.nl \n------ They got my dutchs subs ---- and more ------\n\nGeneral:\n\nComplete name                    : K-9\\K-9.avi\nFormat                           : AVI\nFormat/Info                      : Audio Video Interleave\nFile size                        : 1.40 GiB\nDuration                         : 1h 37mn\nOverall bit rate                 : 2 062 Kbps\n\nVideo:\n\nFormat                           : MPEG-4 Visual\nFormat profile                   : Simple@L3\nFormat settings, BVOP            : No\nFormat settings, QPel            : No\nFormat settings, GMC             : No warppoints\nFormat settings, Matrix          : Default (H.263)\nCodec ID                         : XVID\nCodec ID/Hint                    : XviD\nDuration                         : 1h 37mn\nBit rate                         : 1 859 Kbps\nWidth                            : 652 pixels\nHeight                           : 352 pixels\nDisplay aspect ratio             : 1.852\nFrame rate                       : 25.000 fps\nColor space                      : YUV\nChroma subsampling               : 4:2:0\nBit depth                        : 8 bits\nScan type                        : Progressive\nBits/(Pixel*Frame)               : 0.324\nStream size                      : 1.26 GiB (90%)\nWriting library                  : XviD 1.1.2 (UTC 2006-11-01)\n\nAudio:\n\nFormat                           : AC-3\nFormat/Info                      : Audio Coding 3\nFormat profile                   : Dolby Digital\nMode extension                   : CM (complete main)\nCodec ID                         : 2000\nDuration                         : 1h 37mn\nBit rate mode                    : Constant\nBit rate                         : 192 Kbps\nChannel(s)                       : 2 channels\nChannel positions                : Front: L R\nSampling rate                    : 48.0 KHz\nBit depth                        : 16 bits\nStream size                      : 133 MiB (9%)\nAlignment                        : Aligned on interleaves\nInterleave, duration             : 32 ms (0.80 video frame)\nInterleave, preload duration     : 1120 ms\n","torrent":{"xt":"urn:btih:7adfc599e0fa765b51545f0183f03a6944e4e5a8","amp;dn":"K-9+1989+DVDrip+English+Klam","amp;tr":["udp%3A%2F%2Ftracker.openbittorrent.com%3A80","udp%3A%2F%2Fopen.demonii.com%3A1337","udp%3A%2F%2Ftracker.coppersurfer.tk%3A6969","udp%3A%2F%2Fexodus.desync.com%3A6969"],"infoHash":"7adfc599e0fa765b51545f0183f03a6944e4e5a8","infoHashBuffer":{"type":"Buffer","data":[122,223,197,153,224,250,118,91,81,84,95,1,131,240,58,105,68,228,229,168]},"announce":[],"urlList":[]}}